<svg width="32" height="32" viewBox="0 0 32 32" fill="none" xmlns="http://www.w3.org/2000/svg">
<path d="M32 29.4994V30.4988C32 31.3273 31.3287 31.9986 30.5002 31.9986L1.50014 32C0.671639 32 0.000352513 31.3287 0.000352513 30.5002V29.5008C0.000352513 28.6723 0.671639 28.001 1.50014 28.001H30.4988C31.3273 28.001 31.9986 28.6723 31.9986 29.5008L32 29.4994ZM29.0005 15.9944V14.4946H22.9998V15.9944C22.9998 16.7341 23.4004 17.3794 23.9992 17.7239V22.7688C23.3991 23.1133 22.9998 23.7586 22.9998 24.4982V25.998H29.0005V24.4982C29.0005 23.7586 28.5999 23.1133 28.0011 22.7688V17.7239C28.6012 17.3794 29.0005 16.7341 29.0005 15.9944ZM18.9998 15.9944V14.4946H12.9991V15.9944C12.9991 16.7341 13.3997 17.3794 13.9985 17.7239V22.7688C13.3984 23.1133 12.9991 23.7586 12.9991 24.4982V25.998H18.9998V24.4982C18.9998 23.7586 18.5992 23.1133 18.0004 22.7688V17.7239C18.6005 17.3794 18.9998 16.7341 18.9998 15.9944ZM9.00046 15.9944V14.4946H2.99983V15.9944C2.99983 16.7341 3.40039 17.3794 3.99923 17.7239V22.7688C3.39906 23.1133 2.99983 23.7586 2.99983 24.4982V25.998H9.00046V24.4982C9.00046 23.7586 8.59989 23.1133 8.00105 22.7688V17.7239C8.60122 17.3794 9.00046 16.7341 9.00046 15.9944ZM0.0455366 11.8001C-0.0843423 11.3845 0.0701456 10.9305 0.425594 10.6804L15.4245 0.180467C15.7691 -0.0601557 16.2298 -0.0601557 16.5743 0.180467L31.5733 10.6804C31.9287 10.9306 32.0832 11.3858 31.9533 11.8001C31.8235 12.2157 31.4338 12.5001 30.9977 12.5001H1.00084C0.566081 12.5001 0.176784 12.2157 0.0455366 11.8001ZM13.0009 7.50037C13.0009 8.04997 13.4507 8.49978 14.0003 8.49978H18.0007C18.5503 8.49978 19.0001 8.04997 19.0001 7.50037C19.0001 6.95077 18.5503 6.50095 18.0007 6.50095H14.0003C13.4507 6.50095 13.0009 6.95077 13.0009 7.50037Z" fill="#070D20"/>
</svg>
