<svg width="20" height="9" viewBox="0 0 20 9" fill="none" xmlns="http://www.w3.org/2000/svg">
<path d="M4.26129 5.80037C4.26129 5.9737 4.25895 6.1507 4.25429 6.33137C4.24962 6.5127 4.24729 6.69437 4.24729 6.87637C4.24729 7.27637 3.92229 7.60237 3.52129 7.60237H3.03529C2.84291 7.6021 2.65851 7.5255 2.52257 7.38937C2.38664 7.25325 2.31029 7.06874 2.31029 6.87637C2.31029 6.69437 2.30795 6.5127 2.30329 6.33137C2.29915 6.1544 2.29715 5.97739 2.29729 5.80037V4.29637C2.29729 4.12437 2.30562 3.9087 2.32229 3.64937C2.34429 3.38537 2.36395 3.11737 2.38129 2.84537C2.40262 2.57337 2.41129 2.3357 2.40729 2.13237L2.35529 0.201368C2.52009 0.16925 2.68675 0.14754 2.85429 0.136367C3.15405 0.119479 3.45452 0.119479 3.75429 0.136367C4.05029 0.152367 4.26029 0.415368 4.26029 0.711368L4.26129 5.80037ZM1.00729 6.78537C1.10229 6.78537 1.89729 6.78137 2.08729 6.78537C1.99229 6.78537 2.27729 6.78937 2.08729 6.78537H4.24729C4.34729 6.78537 4.58429 6.78937 4.78729 6.78537C4.69229 6.78537 4.99429 6.78137 4.78729 6.78537H5.07229C5.53829 6.78537 5.92629 7.11037 5.92629 7.57537C5.92629 8.06337 5.58029 8.40537 5.09329 8.40537H0.839286C0.721852 8.40774 0.607474 8.36785 0.516985 8.29296C0.426496 8.21807 0.365919 8.11317 0.346286 7.99737C0.321075 7.78568 0.314717 7.57218 0.327286 7.35937C0.350286 7.01637 0.663286 6.78537 1.00729 6.78537ZM0.119286 3.53237C-0.156714 3.15237 0.0832863 2.66937 0.461286 2.39037C0.821286 2.1237 1.13062 1.85403 1.38929 1.58137C1.79529 1.15337 2.08729 0.469368 2.35529 0.201368C2.44829 0.236368 2.55829 0.428368 2.66229 0.665368C2.96129 1.34537 2.94329 2.15937 2.45229 2.71537C2.11997 3.08762 1.73164 3.40577 1.30129 3.65837C0.909286 3.89437 0.396286 3.89637 0.119286 3.53237ZM7.66629 2.62537C7.20229 2.45437 7.09229 1.89537 7.33529 1.46537C7.40809 1.33403 7.49066 1.20834 7.58229 1.08937C7.84438 0.744709 8.18388 0.466549 8.57336 0.27737C8.96283 0.088191 9.39135 -0.00669977 9.82429 0.000367749C10.3776 0.000367749 10.8596 0.108368 11.2703 0.324368C11.6803 0.536368 11.9976 0.836368 12.2223 1.22437C12.4523 1.6097 12.567 2.0637 12.5663 2.58637C12.5663 2.94903 12.495 3.27737 12.3523 3.57137C12.2096 3.86537 12.0216 4.13737 11.7883 4.38737C11.555 4.63737 11.298 4.8817 11.0173 5.12037L10.0903 5.84537L9.60429 6.25437C9.43095 6.4017 9.28195 6.54403 9.15729 6.68137C9.03229 6.82037 9.11229 6.68637 9.10729 6.78537L9.00029 7.58937C8.97023 7.81524 8.85915 8.0225 8.68771 8.1726C8.51627 8.3227 8.29615 8.40542 8.06829 8.40537C7.93242 8.40759 7.79789 8.37833 7.67523 8.31986C7.55257 8.26139 7.44511 8.17531 7.36129 8.06837C7.28991 7.97512 7.22088 7.88009 7.15429 7.78337C7.01935 7.5845 6.94724 7.34969 6.94729 7.10937C6.94729 6.87203 7.01429 6.63203 7.14829 6.38937C7.28629 6.14803 7.46762 5.90637 7.69229 5.66437C7.92229 5.41837 8.16895 5.17637 8.43229 4.93837L9.83729 3.72637C10.0273 3.56237 10.1873 3.38303 10.3173 3.18837C10.4473 2.99437 10.512 2.77437 10.5113 2.52837C10.5181 2.29822 10.4345 2.07455 10.2783 1.90537C10.123 1.73203 9.90295 1.6457 9.61829 1.64637C9.4729 1.64229 9.32865 1.67313 9.19764 1.73629C9.06662 1.79945 8.95265 1.89309 8.86529 2.00937L8.83129 2.05337C8.53829 2.43737 8.12329 2.78337 7.66629 2.62537ZM11.5463 6.79137C12.2863 6.78837 12.9483 7.45637 12.4883 8.03637C12.295 8.28303 11.9686 8.40637 11.5093 8.40637H8.25729C8.11023 8.40649 7.96629 8.36395 7.84293 8.2839C7.71956 8.20385 7.62208 8.08972 7.56229 7.95537C7.38029 7.55137 7.58229 7.07837 8.01629 6.98737C8.14229 6.96137 8.27429 6.93737 8.41229 6.91537C9.32429 6.76037 10.2573 6.78337 11.1823 6.79037L11.5093 6.79237H11.5473L11.5463 6.79137ZM17.7543 5.78737C17.7543 5.44603 17.642 5.1847 17.4173 5.00337C17.1908 4.81387 16.9024 4.71454 16.6073 4.72437C16.4866 4.72437 16.3676 4.7377 16.2503 4.76437C16.0283 4.81337 15.7823 4.81537 15.6223 4.65337C15.5512 4.57852 15.486 4.49828 15.4273 4.41337C15.2853 4.20137 15.1613 4.12337 15.1613 3.79737C15.8333 3.64837 15.9373 3.63637 16.2313 3.57137C16.5253 3.50137 16.7043 3.45437 17.2093 3.45437C17.706 3.45437 18.151 3.54737 18.5443 3.73337C18.9376 3.91403 19.249 4.18403 19.4783 4.54337C19.707 4.89737 19.8213 5.3357 19.8213 5.85837C19.8286 6.26173 19.742 6.66126 19.5683 7.02537C19.4074 7.35701 19.1752 7.64898 18.8883 7.88037C18.599 8.1137 18.2663 8.29104 17.8903 8.41237C17.5143 8.53237 17.1166 8.5927 16.6973 8.59337C16.1481 8.60172 15.6018 8.51163 15.0843 8.32737C14.907 8.25961 14.7337 8.18182 14.5653 8.09437C14.1383 7.86737 13.9633 7.34537 14.2283 6.94137C14.4933 6.54737 15.0323 6.56637 15.4633 6.76637L15.5183 6.79137C15.8036 6.9127 16.1103 6.97337 16.4383 6.97337C16.707 6.97337 16.9383 6.9257 17.1323 6.83037C17.3303 6.73103 17.4836 6.59303 17.5923 6.41637C17.7003 6.23837 17.7543 6.0287 17.7543 5.78737ZM18.0913 3.16237C17.9067 3.34902 17.6998 3.51225 17.4753 3.64837C17.2574 3.78512 17.0302 3.90642 16.7953 4.01137C16.4953 4.14137 16.6303 3.66437 16.3053 3.69337L15.1613 3.79737C15.3513 3.45437 16.3613 2.62437 16.3613 2.62437C16.4433 2.54237 16.5383 2.4497 16.6463 2.34637C16.831 2.17599 17.019 2.00929 17.2103 1.84637C17.2198 1.83954 17.2266 1.82959 17.2295 1.81826C17.2324 1.80694 17.2313 1.79494 17.2263 1.78437C17.2207 1.77287 17.2115 1.76346 17.2002 1.75753C17.1889 1.75159 17.1759 1.74943 17.1633 1.75137C17.0142 1.77164 16.8638 1.78067 16.7133 1.77837C16.6833 1.77903 16.6533 1.7807 16.6233 1.78337C16.5093 1.79237 16.4093 1.76337 16.2713 1.77837C16.1213 1.79137 15.9973 1.77837 15.8373 1.77837H14.9343C14.6783 1.77837 14.2663 1.71437 14.2413 1.45837C14.2302 1.35068 14.2236 1.24259 14.2213 1.13437C14.2213 1.00903 14.2323 0.862368 14.2543 0.694368C14.2943 0.382368 14.5983 0.201368 14.9113 0.201368H18.3003C18.7783 0.201368 19.2553 0.449367 19.3933 0.907367C19.4493 1.0887 19.4776 1.2487 19.4783 1.38737C19.4783 1.6727 19.3483 1.95137 19.0883 2.22337L18.0913 3.16237Z" fill="#333333"/>
</svg>
