<svg width="18" height="18" viewBox="0 0 18 18" fill="none" xmlns="http://www.w3.org/2000/svg">
<path opacity="0.6" fill-rule="evenodd" clip-rule="evenodd" d="M9 18C4.02944 18 0 13.9706 0 8.99999C0 4.02943 4.02944 0 9 0C13.9705 0 18 4.02943 18 8.99999C18 13.9706 13.9705 18 9 18ZM7.95002 4.5C7.95002 3.9201 8.42012 3.45 9.00002 3.45C9.57992 3.45 10.05 3.9201 10.05 4.5V8.69999C10.05 9.44558 9.44561 10.05 8.70002 10.05H6.00002C5.42011 10.05 4.95002 9.57989 4.95002 8.99999C4.95002 8.42009 5.42011 7.94999 6.00002 7.94999H7.95002V4.5Z" fill="white"/>
</svg>
